PathFileType	4	(X/Y/Z)	Patient4_TMGait_0pt3_02_right_09.trc.trc
DataRate	CameraRate	NumFrames	NumMarkers	Units	OrigDataRate	OrigDataStartFrame	OrigNumFrames
51.094890510949	51.094890510949	5	33	mm	51.094890510949	1	       141
Frame#	Time	Sacral			L.Shoulder			Chest			R.Shoulder			Neck			R.ASIS			L.ASIS			R.Thigh.Superior			R.Thigh.Lateral			R.Thigh.Inferior			R.Patella			L.Thigh.Superior			L.Thigh.Lateral			L.Thigh.Inferior			L.Patella			L.Shank.Superior			L.Shank.Lateral			L.Shank.Inferior			R.Shank.Superior			R.Shank.Lateral			R.Shank.Inferior			R.Heel			R.Midfoot.Superior			R.Midfoot.Lateral			R.Toe			L.Heel			L.Midfoot.Lateral			L.Midfoot.Superior			L.Toe			L.Elbow			L.Wrist			R.Elbow			R.Wrist			
		X1	Y1	Z1	X2	Y2	Z2	X3	Y3	Z3	X4	Y4	Z4	X5	Y5	Z5	X6	Y6	Z6	X7	Y7	Z7	X8	Y8	Z8	X9	Y9	Z9	X10	Y10	Z10	X11	Y11	Z11	X12	Y12	Z12	X13	Y13	Z13	X14	Y14	Z14	X15	Y15	Z15	X16	Y16	Z16	X17	Y17	Z17	X18	Y18	Z18	X19	Y19	Z19	X20	Y20	Z20	X21	Y21	Z21	X22	Y22	Z22	X23	Y23	Z23	X24	Y24	Z24	X25	Y25	Z25	X26	Y26	Z26	X27	Y27	Z27	X28	Y28	Z28	X29	Y29	Z29	X30	Y30	Z30	X31	Y31	Z31	X32	Y32	Z32	X33	Y33	Z33	

1	16.530000000000	702.365250045260	995.410899303434	447.872492822839	852.815975399810	1412.973031853436	227.750305197657	967.652658167903	1362.096665086235	387.418489730237	894.574516955362	1448.155379646848	559.395806803901	844.669084688078	1488.914241531728	379.009406578055	937.908259355531	942.090885613131	558.555014595070	914.479895830529	957.624298910177	283.083943594282	1008.235494143603	755.566190679423	531.149889213717	956.724854752402	637.935178300416	605.033037625355	1041.353685348565	590.214628031110	523.991942624986	1047.345551138954	475.288327069239	550.246773924060	980.523280068813	753.316868463188	320.624076625220	903.275104862565	627.492233370936	268.347012053190	994.006142495198	559.649442110201	334.358822447563	998.804186409205	488.359047522921	345.184583653390	968.954748400076	413.048581485000	340.906418446499	875.993879571113	299.444661890865	294.035838531417	923.532742697163	189.950109207972	369.198829045938	961.088507022633	410.816653511219	560.719123273279	832.373760444024	390.302405153467	616.390276272548	808.092780563646	280.395801315245	574.738192903758	601.741661122371	236.806786760398	537.080181661568	762.008952907283	168.573160221449	597.560190399323	650.234387963083	180.981928554472	620.381639093778	813.782300393467	54.751202392077	639.810376557986	790.495956707544	37.494405105782	416.817721119632	861.693002094672	35.450446583820	333.228796172020	945.738573061540	96.400154392067	358.600297038728	1072.771693000274	47.829327652510	325.400437602287	901.845852421735	1062.768550777647	116.269790970135	1026.525479044708	834.516786973564	111.549254571165	966.111564409630	1106.898595754079	691.014072810117	1182.781606478299	964.107659671364	656.288202378051	
2	16.549571428571	701.218189002509	992.482662778500	443.567080095282	854.133311334576	1412.331570007165	227.484607948512	966.302909475381	1360.632532358223	388.620022575773	890.074497700262	1444.701678050035	560.197848565323	843.684799612696	1487.365719699428	379.102945772283	935.736102091670	940.861089926798	556.412407344546	915.465319452283	955.922809597527	281.488859410508	1009.606414611451	756.739646677258	528.999161484511	960.797345586105	638.471079397060	602.651577666058	1045.951761354089	592.429852806703	521.008086172933	1054.519739414997	477.752019740713	547.241238847252	982.093106535733	751.923153024138	320.226546418479	905.961736033927	625.506538576520	267.434151624689	996.159962569568	558.090252494751	334.691020124787	1000.919555233502	486.433758541646	345.904250115458	969.700826449413	410.825788894344	341.444204993109	875.204430892094	298.723552472635	294.150980376000	919.830948803382	188.653722415488	369.765443281173	969.616726549124	411.719555530189	558.290057947233	841.337582963748	388.554267157658	613.887234492928	819.751003834197	277.846922754414	572.763447380213	614.426734403998	228.686902654613	535.052476976977	776.355681575044	165.727528851884	596.212539953044	664.314194375851	175.192876830370	619.027147337370	831.273527983708	53.951242160334	639.632325183413	784.499139382072	37.530417186082	416.776869259382	855.800097790367	35.476008432171	333.274233441855	939.992776182746	96.216032641565	358.968290317307	1066.919498947570	47.465569028011	325.489981252533	909.206563305156	1063.852566497028	114.303025226506	1043.821500809381	841.920849158259	111.081197982072	948.500098117619	1100.643465798874	690.639233608995	1144.463678916351	937.017977995890	665.026804978317	
3	16.569142857143	700.027909500873	989.730961793145	439.218407223408	855.566481734991	1411.844473571758	227.309133993196	965.000537035631	1359.267530489911	389.927141079315	885.579579050225	1441.353233824816	561.059043892695	842.765816865967	1485.940494698560	379.295234162833	933.529712513978	939.713252069974	554.347729627817	916.491438064857	954.383993690429	279.878204563980	1010.821972548733	757.956668239747	526.881728326588	964.639809885367	639.083631105396	600.292226399989	1050.313431850919	594.697642451100	518.110269498345	1061.513390612890	480.379637999025	544.353694354010	983.469402085129	750.539048133761	319.705318772167	908.264725312452	623.610787569293	266.446762534044	997.882918113832	556.528680185456	334.908367156822	1002.564915101836	484.541544155450	346.503399281214	970.015086659015	408.670620481483	341.883007272300	874.035235650331	298.011765352999	294.214019325200	915.861324690963	187.399094329270	370.270858092710	978.159356913453	412.664002816046	555.965710454783	850.447559222639	386.429261812300	611.443034873907	831.961191143301	274.919048138548	570.853046751207	628.024717521709	219.471088412309	533.019405815099	791.667981271955	162.475776731121	594.971055665936	679.397801846629	168.524848833682	617.683960051228	850.044305856692	52.990114513587	639.529231738931	778.334307235690	37.563754435049	416.738827152262	849.737049602880	35.496208927736	333.313924685347	934.069448488622	96.033229009280	359.308408724318	1060.898795168122	47.108357863949	325.570343867405	916.754644131203	1065.164765400012	112.384990323570	1061.462109897313	849.840574997053	110.737519608296	930.368731265986	1094.686671053644	690.321331606208	1104.750227047952	910.832826331649	673.795976157633	
4	16.588714285714	698.821922399466	987.350914699903	434.949847138276	857.146128227341	1411.617576132964	227.282499880965	963.818876115648	1358.106753844848	391.361281146020	881.238036408195	1438.287125708734	561.984279932995	841.983474217602	1484.758673412158	379.631857256956	931.333320961448	938.742825571368	552.473628961833	917.507158089015	953.117902028344	278.326654208227	1011.750809530369	759.208666076568	524.896963113012	967.983944354806	639.792748256074	598.065832948008	1054.154095955950	596.970823999669	515.450897161044	1067.974225626805	483.175110268046	541.743592965407	984.497250444954	749.217948073554	319.046795933339	909.903063771161	621.917059164469	265.403368466993	998.876582343493	555.021653117923	334.964998829553	1003.418431820556	482.768476017095	346.918738996940	969.645260922246	406.697164377397	342.168727672302	872.313919360431	297.344000032579	294.199884162541	911.602407280936	186.254117453015	370.671940306684	986.428580256663	413.658782255300	553.876550286376	859.500674497168	383.835356216476	609.187767941489	844.617493106769	271.571133216500	569.109486601972	642.591316356306	209.003435394787	531.079673631276	807.948056217713	158.770845609947	593.903766617723	695.547990718007	160.835570037823	616.416507315272	870.130339603384	51.895016365665	639.502497270579	772.107716889686	37.592880657850	416.704647360754	843.604841728167	35.508767972074	333.343541741958	928.062034603662	95.860071916534	359.596878767904	1054.809678949389	46.773881099932	325.634979153862	924.346987706281	1066.795233606667	110.597628136909	1079.055979803615	858.320321199478	110.597024299007	911.992810546735	1089.432890291698	690.089151637600	1064.311244846209	886.908150398779	682.298336667866	
5	16.608285714286	697.634539482968	985.513000906561	430.861305897713	858.909398384692	1411.749857697423	227.456805636860	962.819784505400	1357.248646502931	392.947593107466	877.166363346867	1435.662177169600	562.980656861203	841.399880816503	1483.929880964734	380.150308257875	929.174485293991	938.040862346431	550.868158094052	918.478957296754	952.221997037844	276.900767725258	1012.280865524256	760.499489418167	523.132351197190	970.597946300558	640.621321821140	596.067387738439	1057.233797074950	599.216310601075	513.161633555525	1073.602026850702	486.151134991243	539.541217260965	985.042648171434	748.008092547300	318.270402468022	910.647443231327	620.524848205915	264.329979523228	998.886176363293	553.621556193751	334.844635812274	1003.198253099700	481.189923761840	347.117711373524	968.368323617123	405.005599130160	342.268406240758	869.885918463392	296.754420780571	294.092687640293	907.020486616213	185.277457544676	370.938795382097	994.186248430286	414.728742479847	552.125311965885	868.354880955361	380.721491348004	607.237337975744	857.651567814084	267.813758032580	567.616074920165	658.214057353632	197.229204887648	529.328617822019	825.216700259750	154.621720675237	593.048613179673	712.859530614867	152.073765010915	615.280718533764	891.569434499740	50.749309746052	639.522118693973	765.892202672957	37.617157263300	416.673827524422	837.471370303451	35.512262973481	333.360205538275	922.032243062493	95.704594603819	359.815575933738	1048.718952464634	46.475781229206	325.679483935752	931.882001957027	1068.836236055982	109.003282233107	1096.305799047067	867.434056507940	110.724444860891	893.531944946556	1085.254883402441	689.967892697685	1023.726419208266	866.359770253561	690.279664735891	
